<svg width="50" height="50" viewBox="0 0 50 50" fill="none" xmlns="http://www.w3.org/2000/svg">
<path d="M50 25C50 11.1929 38.8071 0 25 0C11.1929 0 0 11.1929 0 25C0 38.8071 11.1929 50 25 50C38.8071 50 50 38.8071 50 25Z" fill="#4766EA"/>
<path d="M21.1579 21.339L23.1668 20.4601L26.515 18.9116L28.5239 17.9908V21.339L30.5329 20.4601L33.8811 18.9116L35.89 17.9908V34.0623H14.4614V15.3123H21.1579V21.339ZM21.9531 23.1806L19.1489 24.478V17.3212H16.4704V32.0533H33.8811V21.1298L29.3191 23.1806L26.515 24.478V21.1298L21.9531 23.1806ZM21.8275 26.3614V29.7096H18.4793V26.3614H21.8275ZM26.8498 26.3614V29.7096H23.5016V26.3614H26.8498ZM28.5239 26.3614H31.8721V29.7096H28.5239V26.3614Z" fill="url(#paint0_linear_898_92)"/>
<defs>
<linearGradient id="paint0_linear_898_92" x1="25.1757" y1="15.3123" x2="25.1757" y2="34.0623" gradientUnits="userSpaceOnUse">
<stop offset="0.18" stop-color="#FEFEFE"/>
<stop offset="1" stop-color="#FEFEFE" stop-opacity="0.6"/>
</linearGradient>
</defs>
</svg>
